<mxfile host="app.diagrams.net" modified="2021-09-06T10:48:58.173Z" agent="5.0 (Windows NT 10.0; Win64; x64) AppleWebKit/537.36 (KHTML, like Gecko) Chrome/92.0.4515.159 Safari/537.36" etag="mornEaxLnyEMX9wMHbmA" version="15.0.6" type="github">
  <diagram id="prtHgNgQTEPvFCAcTncT" name="Page-1">
    <mxGraphModel dx="1038" dy="579" grid="1" gridSize="10" guides="1" tooltips="1" connect="1" arrows="1" fold="1" page="1" pageScale="1" pageWidth="827" pageHeight="1169" math="0" shadow="0">
      <root>
        <mxCell id="0" />
        <mxCell id="1" parent="0" />
        <mxCell id="gbBlqMgDwcWSX3XyKJBb-1" value="" style="ellipse;whiteSpace=wrap;html=1;" vertex="1" parent="1">
          <mxGeometry x="60" y="120" width="100" height="80" as="geometry" />
        </mxCell>
        <mxCell id="gbBlqMgDwcWSX3XyKJBb-2" value="" style="endArrow=none;html=1;entryX=0.5;entryY=1;entryDx=0;entryDy=0;" edge="1" parent="1" target="gbBlqMgDwcWSX3XyKJBb-1">
          <mxGeometry width="50" height="50" relative="1" as="geometry">
            <mxPoint x="110" y="280" as="sourcePoint" />
            <mxPoint x="440" y="270" as="targetPoint" />
          </mxGeometry>
        </mxCell>
        <mxCell id="gbBlqMgDwcWSX3XyKJBb-3" value="" style="endArrow=none;html=1;" edge="1" parent="1">
          <mxGeometry width="50" height="50" relative="1" as="geometry">
            <mxPoint x="150" y="360" as="sourcePoint" />
            <mxPoint x="110" y="280" as="targetPoint" />
          </mxGeometry>
        </mxCell>
        <mxCell id="gbBlqMgDwcWSX3XyKJBb-4" value="" style="endArrow=none;html=1;" edge="1" parent="1">
          <mxGeometry width="50" height="50" relative="1" as="geometry">
            <mxPoint x="70" y="360" as="sourcePoint" />
            <mxPoint x="110" y="280" as="targetPoint" />
          </mxGeometry>
        </mxCell>
        <mxCell id="gbBlqMgDwcWSX3XyKJBb-5" value="" style="endArrow=none;html=1;" edge="1" parent="1">
          <mxGeometry width="50" height="50" relative="1" as="geometry">
            <mxPoint x="170" y="240" as="sourcePoint" />
            <mxPoint x="50" y="240" as="targetPoint" />
          </mxGeometry>
        </mxCell>
        <mxCell id="gbBlqMgDwcWSX3XyKJBb-8" value="" style="ellipse;whiteSpace=wrap;html=1;" vertex="1" parent="1">
          <mxGeometry x="50" y="760" width="100" height="80" as="geometry" />
        </mxCell>
        <mxCell id="gbBlqMgDwcWSX3XyKJBb-9" value="" style="endArrow=none;html=1;" edge="1" parent="1">
          <mxGeometry width="50" height="50" relative="1" as="geometry">
            <mxPoint x="160" y="890" as="sourcePoint" />
            <mxPoint x="40" y="890" as="targetPoint" />
          </mxGeometry>
        </mxCell>
        <mxCell id="gbBlqMgDwcWSX3XyKJBb-11" value="" style="endArrow=none;html=1;" edge="1" parent="1">
          <mxGeometry width="50" height="50" relative="1" as="geometry">
            <mxPoint x="100" y="950" as="sourcePoint" />
            <mxPoint x="100" y="840" as="targetPoint" />
          </mxGeometry>
        </mxCell>
        <mxCell id="gbBlqMgDwcWSX3XyKJBb-12" value="" style="endArrow=none;html=1;" edge="1" parent="1">
          <mxGeometry width="50" height="50" relative="1" as="geometry">
            <mxPoint x="50" y="1000" as="sourcePoint" />
            <mxPoint x="100" y="950" as="targetPoint" />
          </mxGeometry>
        </mxCell>
        <mxCell id="gbBlqMgDwcWSX3XyKJBb-13" value="" style="endArrow=none;html=1;" edge="1" parent="1">
          <mxGeometry width="50" height="50" relative="1" as="geometry">
            <mxPoint x="140" y="1000" as="sourcePoint" />
            <mxPoint x="100" y="950" as="targetPoint" />
          </mxGeometry>
        </mxCell>
        <mxCell id="gbBlqMgDwcWSX3XyKJBb-14" value="Check for availabity&lt;br&gt;" style="ellipse;whiteSpace=wrap;html=1;" vertex="1" parent="1">
          <mxGeometry x="340" y="180" width="120" height="80" as="geometry" />
        </mxCell>
        <mxCell id="gbBlqMgDwcWSX3XyKJBb-19" value="Reserve Airline" style="ellipse;whiteSpace=wrap;html=1;" vertex="1" parent="1">
          <mxGeometry x="340" y="400" width="120" height="80" as="geometry" />
        </mxCell>
        <mxCell id="gbBlqMgDwcWSX3XyKJBb-20" value="Cancel Ticket" style="ellipse;whiteSpace=wrap;html=1;" vertex="1" parent="1">
          <mxGeometry x="340" y="620" width="120" height="80" as="geometry" />
        </mxCell>
        <mxCell id="gbBlqMgDwcWSX3XyKJBb-21" value="Check flight status" style="ellipse;whiteSpace=wrap;html=1;" vertex="1" parent="1">
          <mxGeometry x="340" y="810" width="120" height="80" as="geometry" />
        </mxCell>
        <mxCell id="gbBlqMgDwcWSX3XyKJBb-22" value="Update flight schedule" style="ellipse;whiteSpace=wrap;html=1;" vertex="1" parent="1">
          <mxGeometry x="340" y="1010" width="120" height="80" as="geometry" />
        </mxCell>
        <mxCell id="gbBlqMgDwcWSX3XyKJBb-23" value="Passenger&lt;br&gt;" style="text;html=1;strokeColor=none;fillColor=none;align=center;verticalAlign=middle;whiteSpace=wrap;rounded=0;" vertex="1" parent="1">
          <mxGeometry x="60" y="380" width="100" height="20" as="geometry" />
        </mxCell>
        <mxCell id="gbBlqMgDwcWSX3XyKJBb-24" value="Admin&lt;br&gt;" style="text;html=1;strokeColor=none;fillColor=none;align=center;verticalAlign=middle;whiteSpace=wrap;rounded=0;" vertex="1" parent="1">
          <mxGeometry x="35" y="1020" width="130" height="20" as="geometry" />
        </mxCell>
        <mxCell id="gbBlqMgDwcWSX3XyKJBb-25" value="" style="endArrow=none;html=1;" edge="1" parent="1">
          <mxGeometry width="50" height="50" relative="1" as="geometry">
            <mxPoint x="130" y="300" as="sourcePoint" />
            <mxPoint x="340" y="230" as="targetPoint" />
          </mxGeometry>
        </mxCell>
        <mxCell id="gbBlqMgDwcWSX3XyKJBb-26" value="" style="endArrow=none;html=1;" edge="1" parent="1">
          <mxGeometry width="50" height="50" relative="1" as="geometry">
            <mxPoint x="130" y="300" as="sourcePoint" />
            <mxPoint x="339" y="426" as="targetPoint" />
          </mxGeometry>
        </mxCell>
        <mxCell id="gbBlqMgDwcWSX3XyKJBb-27" value="" style="endArrow=none;html=1;entryX=0.023;entryY=0.418;entryDx=0;entryDy=0;entryPerimeter=0;" edge="1" parent="1" target="gbBlqMgDwcWSX3XyKJBb-20">
          <mxGeometry width="50" height="50" relative="1" as="geometry">
            <mxPoint x="130" y="300" as="sourcePoint" />
            <mxPoint x="439" y="566" as="targetPoint" />
          </mxGeometry>
        </mxCell>
        <mxCell id="gbBlqMgDwcWSX3XyKJBb-28" value="" style="endArrow=none;html=1;" edge="1" parent="1">
          <mxGeometry width="50" height="50" relative="1" as="geometry">
            <mxPoint x="130" y="300" as="sourcePoint" />
            <mxPoint x="350" y="820" as="targetPoint" />
          </mxGeometry>
        </mxCell>
        <mxCell id="gbBlqMgDwcWSX3XyKJBb-29" value="" style="endArrow=none;html=1;" edge="1" parent="1">
          <mxGeometry width="50" height="50" relative="1" as="geometry">
            <mxPoint x="130" y="300" as="sourcePoint" />
            <mxPoint x="363" y="1020" as="targetPoint" />
          </mxGeometry>
        </mxCell>
        <mxCell id="gbBlqMgDwcWSX3XyKJBb-30" value="" style="endArrow=none;html=1;entryX=-0.01;entryY=0.677;entryDx=0;entryDy=0;entryPerimeter=0;" edge="1" parent="1" target="gbBlqMgDwcWSX3XyKJBb-20">
          <mxGeometry width="50" height="50" relative="1" as="geometry">
            <mxPoint x="111" y="900" as="sourcePoint" />
            <mxPoint x="270" y="870" as="targetPoint" />
          </mxGeometry>
        </mxCell>
        <mxCell id="gbBlqMgDwcWSX3XyKJBb-31" value="" style="endArrow=none;html=1;entryX=-0.003;entryY=0.423;entryDx=0;entryDy=0;entryPerimeter=0;" edge="1" parent="1" target="gbBlqMgDwcWSX3XyKJBb-22">
          <mxGeometry width="50" height="50" relative="1" as="geometry">
            <mxPoint x="110" y="900" as="sourcePoint" />
            <mxPoint x="322.76" y="1253.44" as="targetPoint" />
          </mxGeometry>
        </mxCell>
        <mxCell id="gbBlqMgDwcWSX3XyKJBb-32" value="Choose seat&lt;br&gt;" style="ellipse;whiteSpace=wrap;html=1;" vertex="1" parent="1">
          <mxGeometry x="710" y="340" width="120" height="80" as="geometry" />
        </mxCell>
        <mxCell id="gbBlqMgDwcWSX3XyKJBb-41" value="" style="endArrow=none;dashed=1;html=1;exitX=1;exitY=0.375;exitDx=0;exitDy=0;exitPerimeter=0;" edge="1" parent="1" source="gbBlqMgDwcWSX3XyKJBb-19">
          <mxGeometry width="50" height="50" relative="1" as="geometry">
            <mxPoint x="660" y="430" as="sourcePoint" />
            <mxPoint x="710" y="380" as="targetPoint" />
          </mxGeometry>
        </mxCell>
        <mxCell id="gbBlqMgDwcWSX3XyKJBb-42" value="extend&lt;br&gt;" style="text;html=1;strokeColor=none;fillColor=none;align=center;verticalAlign=middle;whiteSpace=wrap;rounded=0;" vertex="1" parent="1">
          <mxGeometry x="530" y="380" width="40" height="20" as="geometry" />
        </mxCell>
      </root>
    </mxGraphModel>
  </diagram>
</mxfile>
